PathFileType	4	(X/Y/Z)	/home/abdul/Desktop/myosuite/custom_workspace/IK/output/S16_12_1.trc
DataRate	CameraRate	NumFrames	NumMarkers	Units	OrigDataRate	OrigDataStartFrame	OrigNumFrames
200.0	200.0	61	3	mm	200.0	913	1216
Frame#	Time	V_Shoulder			V_Elbow			V_Wrist		
		X1	Y1	Z1	X2	Y2	Z2	X3	Y3	Z3

913	4.56	-113.79995487573551	600.6894842930091	299.57349815172995	-259.18808206459533	470.3698759255328	39.67181664133292	-200.41022533994976	273.97424252651047	82.90166104017491
914	4.565	-113.91815448385383	600.8811415849019	299.53284485386604	-259.542507696475	471.11052834475146	39.5588309305145	-201.77841455862017	275.1787363086921	82.56837047958689
915	4.57	-114.03938213018542	601.0725137300882	299.48884837752905	-259.8863837433125	471.84853727053394	39.438934276787705	-203.12030067972682	276.3812424399905	82.21095205038273
916	4.575	-114.16366987171422	601.2635338017932	299.4414775387647	-260.21952571198375	472.58353920943546	39.312045938727124	-204.43508896815314	277.5811749267742	81.83000638985175
917	4.58	-114.29104749664073	601.4541349669338	299.390705471297	-260.54176446137507	473.3151767806521	39.17809418527331	-205.72202546079146	278.77795568104534	81.42616211747332
918	4.585	-114.42154245183194	601.6442505464445	299.33650972697336	-260.85294640073187	474.04309917344875	39.037016559552725	-206.9803979717513	279.97101524712275	81.0000738104315
919	4.59	-114.55517977338816	601.8338140777269	299.2788723688722	-261.15293366047695	474.7669625851936	38.888760126829204	-208.20953701206616	281.1597934974597	80.55241994230212
920	4.595	-114.69198202046238	602.0227593791627	299.2177800568158	-261.4416042353461	475.4864306389603	38.73328170592087	-209.4088166228412	282.3437402956706	80.08390079378731
921	4.6	-114.83196921246163	602.2110206166229	299.1532241250433	-261.7188520997322	476.2011747797437	38.57054808344067	-210.57765512097183	283.52231612499605	79.5952363443784
922	4.605	-114.97515876975348	602.3985323718936	299.08520065181835	-261.9845872951705	476.91087464841996	38.40053621024377	-211.71551575674465	284.69499268059764	79.08716415378616
923	4.61	-115.1215654579939	602.5852297129308	299.01371052075615	-262.23873598994066	477.61521843267724	38.223233379491845	-212.82190728280818	285.8612534242521	78.56043724188888
924	4.615	-115.27120133618654	602.7710482658463	298.93875947367457	-262.4812405108008	478.3139031942333	38.03863738577295	-213.89638443417377	287.0205941001951	78.01582197581261
925	4.62	-115.42407570857563	602.9559242885157	298.860358154789	-262.71205934691284	479.00663517175747	37.846756664745755	-214.93854831907282	288.17252321106287	77.45409597257748
926	4.625	-115.58019508046796	603.1397947456912	298.7785221460876	-262.9311671260587	479.69313005901097	37.64761041280858	-215.9480467206585	289.31656245307806	76.8760460255179
927	4.63	-115.73956311807213	603.3225973854918	298.69327199374067	-263.1385545632885	480.37311325782116	37.44122868632771	-216.9245743096957	290.45224710983376	76.28246606241748
928	4.635	-115.90218061243479	603.5042708171349	298.6046332254179	-263.3342283821833	481.0463201056075	37.227652479994205	-217.86787276853613	291.5791264042423	75.6741551429894
929	4.64	-116.06804544754719	603.6847545897634	298.5126363584008	-263.5182112089573	481.71249607727805	37.006933783916054	-218.77773082682148	292.6967638084269	75.05191550298578
930	4.645	-116.23715257268607	603.8639892722159	298.41731689840185	-263.69054143966395	482.3713969614185	36.77913561909101	-219.65398420950146	293.8047373115536	74.41655065183522
931	4.65	-116.40949397904656	604.0419165335747	298.31871532901465	-263.8512730808139	483.0227890107974	36.5443320509463	-220.49651549789087	294.9026396458145	73.76886353029002
932	4.655	-116.58505868071495	604.218479224325	298.21687709174324	-264.0004755637533	483.6664490673114	36.3026081806736	-221.3052539046281	295.9900784709875	73.10965473411463
933	4.66	-116.76383270002304	604.3936214579444	298.1118525565741	-264.1382335331916	484.3021646615915	36.05406011413174	-222.08017496352699	297.06667651821067	72.43972080937093
934	4.665	-116.94579905731592	604.56728869274	298.00369698307605	-264.2646466103103	484.92973408759065	35.798794908135385	-222.82130013544412	298.13207169381144	71.75985262435292
935	4.67	-117.13093776515791	604.7394278137399	297.89247047203213	-264.37982913092486	485.5489664525637	35.53693049399505	-223.52869633141165	299.18591714423474	71.07083382270064
936	4.675	-117.31922582699296	604.9099872144429	297.7782379076246	-264.48390985921435	486.15968170294536	35.26859557822273	-224.2024753544084	300.22788128330217	70.37343936168169
937	4.68	-117.51063724026757	605.0789168782217	297.6610688902179	-264.577031677572	486.7617106267112	34.99392952036744	-224.84279326126745	301.2576477832189	69.66843413907279
938	4.685	-117.70514300401676	605.2461684591718	297.54103765980136	-264.65935125317264	487.35489483289825	34.71308218799669	-225.4498496463387	302.2749155309143	68.95657171150762
939	4.69	-117.9027111309045	605.4116953621947	297.41822301017174	-264.73103868189224	487.939086709032	34.426213788892504	-226.02388684864565	303.27939855146315	68.23859310658415
940	4.695	-118.1033066637033	605.5754528220956	297.2927081939595	-264.7922771102547	488.51414935728394	34.13349468058422	-226.5651890843963	304.2708259004781	67.51522573044741
941	4.7	-118.30689169618859	605.7373979814812	297.1645808186168	-264.8432623361215	489.0799565102499	33.83510515739534	-227.07408150682812	305.24894152749846	66.78718237198949
942	4.705	-118.51342539841653	605.8974899672297	297.0339327335087	-264.8842023888775	489.6363924273012	33.53123521523693	-227.5509291954836	306.2135041125114	66.0551603042357
943	4.71	-118.72286404634553	606.0556899653124	296.900859908266	-264.91531708990476	490.18335177251686	33.222084294436165	-227.99613607713647	307.16428687784537	65.31984048292443
944	4.715	-118.93516105575463	606.2119612937414	296.7654623025769	-264.9368375941735	490.7207394752549	32.907861000945324	-228.41014378070304	308.1010773777547	64.58188684173587
945	4.72	-119.15026702040387	606.366269473417	296.62784372761456	-264.9490059138169	491.2484705744628	32.58878280633304	-228.79343042859625	309.0236772680797	63.8419456830903
946	4.725	-119.36812975437512	606.5185822966504	296.4881116993153	-264.95207442458945	491.76647004786554	32.26507572701696	-229.14650936709546	309.9319020584132	63.10064516291931
947	4.73	-119.58869433852408	606.6688698931383	296.34637728374014	-264.9463053561452	492.2746726271985	31.936973983253196	-229.46992783842666	310.82558084922863	62.35859486731857
948	4.735	-119.81190317096745	606.8171047931656	296.2027549347699	-264.9319702671038	492.7730226006763	31.604719638454718	-229.76426559736353	311.7045560564395	61.61638547852211
949	4.74	-120.03769602152262	606.9632619878181	296.0573623244034	-264.90934950590423	493.2614736039037	31.26856221946671	-230.0301334752796	312.5686831258429	60.874588527195975
950	4.745	-120.26601009001041	607.1073189859869	295.91032016594124	-264.87873165847685	493.7399884004464	30.928758318481997	-230.26817189469642	313.41783023987716	60.13375622763928
951	4.75	-120.49678006832482	607.2492558679565	295.76175203035876	-264.84041298379145	494.2085386532797	30.58557117733397	-230.4790493374886	314.2518780190738	59.394421392103
952	4.755	-120.72993820616823	607.3890553353639	295.61178415618525	-264.7946968383667	494.66710468833037	30.239270254957518	-230.6634607700198	315.07071922052046	58.65709742009482
953	4.76	-120.96541438034372	607.5267027573312	295.46054525322126	-264.74189309085085	495.1156752513165	29.890130778860126	-230.8221260285944	315.8742584355697	57.92227835823362
954	4.765	-121.2031361674914	607.662186212575	295.3081663004429	-264.6823175278062	495.55424725907164	29.53843328149557	-230.95578816871625	316.6624117889306	57.19043902595081
955	4.77	-121.44302892014962	607.7954965273029	295.1547803384554	-264.6162912518516	495.98282554651894	29.18446312248093	-231.06521178175095	317.4351066411677	56.46203520210962
956	4.775	-121.68501584601665	607.9266273087204	295.00052225687205	-264.5441400733332	496.4014226104287	28.828509997644034	-231.1511812826859	318.1922812965007	55.737503867427975
957	4.78	-121.9290180902842	608.0555749739718	294.84552857700675	-264.4661938967144	496.8100583510608	28.47086743593279	-231.21449917277812	318.9338847176631	55.017263497446855
958	4.785	-122.17495482090847	608.182338774356	294.6899372302841	-264.38278610288387	497.208759812751	28.111832285259478	-231.25598428096586	319.6598762494189	54.30171440068384
959	4.79	-122.42274331668087	608.3069208146627	294.53388733277774	-264.29425292859753	497.5975609244566	27.751704188392626	-231.2764699880026	320.37022535217744	53.59123909655132
960	4.795	-122.67229905795587	608.4293260674875	294.3775189563028	-264.2009328442759	497.9765022412263	27.39078505004548	-231.2768024373448	321.0649113469709	52.88620272759955
961	4.8	-122.92353581988993	608.549562382393	294.220972896497	-264.1031659313852	498.34563068750543	27.02937849634386	-231.25783873688943	321.743923172881	52.18695350066661
962	4.805	-123.17636576804152	608.6676404897999	294.06439043833365	-264.00129326063495	498.70499930313156	26.667789327886865	-231.22044515571343	322.4072591578131	51.49382315157827
963	4.81	-123.43069955617902	608.7835739994985	293.9079131195197	-263.89565627222487	499.0546669928111	26.306322967641357	-231.16549532001238	323.0549268033278	50.8071274281405
964	4.815	-123.68644642614083	608.8973793936864	293.7516824922404	-263.7865961593727	499.3946982798075	25.945284904935214	-231.0938684124697	323.6869425840446	50.12716658630349
965	4.82	-123.94351430958802	609.0090760144541	293.5958398837135	-263.67445325634935	499.7251630645027	25.5849801368351	-231.00644737931094	324.3033317619389	49.45422589454706
966	4.825	-124.20180993148863	609.1186860456484	293.4405261560324	-263.5595664322401	500.0461363884258	25.22571260821162	-230.9041171493077	324.9041282156614	48.788576141740876
967	4.83	-124.46123891516932	609.2262344890623	293.28588146577016	-263.44227249164203	500.3576982042749	24.867784651808257	-230.78776286899293	325.489374284816	48.13047414396741
968	4.835	-124.72170588876979	609.3317491349136	293.13204502383155	-263.3229055834923	500.6599331523854	24.511496429640314	-230.65826815833302	326.0591206289464	47.48016324605663
969	4.84	-124.98311459293137	609.4352605265882	292.97915485603494	-263.2017966192082	500.9529303440286	24.157145377055908	-230.51651339107065	326.61342610080044	46.83787381386843
970	4.845	-125.2453679895528	609.5368019196388	292.82734756491396	-263.0792727012995	501.23678315185305	23.80502565079336	-230.36337400390812	327.15235763326586	46.203823713667425
971	4.85	-125.5083683714422	609.63640923505	292.676758093226	-262.9556565635934	501.5115890077102	23.455427582367435	-230.1997188386392	327.6759901392084	45.57821877526202
972	4.855	-125.772017472696	609.7341210067881	292.5275194896567	-262.8312660241882	501.77744920803804	23.108637138111348	-230.0264085212623	328.1844064232846	44.96125323592336
973	4.86	-126.03621657963322	609.829978323679	292.37976267720785	-262.70641345222367	502.0344687269066	22.76493538719178	-229.84429388201687	328.67769710465905	44.35311016245517
